<?xml version="1.0" encoding="utf-8"?>
<svg xmlns="http://www.w3.org/2000/svg" viewBox="0 0 400 400" xmlns:bx="https://boxy-svg.com">
  <defs>
    <pattern id="pattern-0" viewBox="0 0 100 100" patternUnits="userSpaceOnUse" preserveAspectRatio="none" width="100" height="100" bx:pinned="true"/>
  </defs>
  <circle cx="200" cy="200" r="200" style="">
    <title>background</title>
  </circle>
  <g transform="matrix(1.006299, 0, 0, 0.91513, 13.70973, -11.222337)" style="">
    <title>Feather</title>
    <path d="M 320.21 -29.567 C 321.265 -30.329 321.898 179.736 320.189 182.566 C 317.66 186.754 187.693 298.147 191.389 297.145 C 196.73 295.697 331.012 217.949 330.694 219.185 C 326.66 234.851 258.701 349.422 252.805 354.274 C 239.125 365.533 124.691 407.831 120.253 412.87 C 111.12 423.238 98.675 438.053 87.206 451.849 C 75.737 465.646 65.244 478.423 60.013 484.715 C 59.377 485.48 58.648 486.463 57.902 487.428 C 57.155 488.394 56.391 489.344 55.683 490.042 C 55.007 490.709 53.294 492.531 51.819 493.959 C 50.344 495.388 49.109 496.423 49.387 495.515 C 50.569 491.667 51.679 487.673 52.92 483.728 C 54.161 479.784 55.533 475.889 57.235 472.241 C 62.648 460.643 67.674 450.393 72.676 440.132 C 77.679 429.872 82.657 419.6 87.973 407.957 C 98.116 385.744 185.719 94.929 189.389 89.031 C 195.031 79.966 296.779 -12.634 320.21 -29.567 Z" style="fill: rgb(255, 255, 255);" id="path-0" transform="matrix(0.96592605, 0.25881901, -0.25881901, 0.96592605, 66.92015921, -42.05392149)"/>
    <path style="fill: rgb(56, 134, 182); visibility: hidden;" d="M 48.737 340.509 C 46.583 340.512 -103.557 255.514 110.471 159.88 C 324.499 64.246 182.186 115.511 186.994 112.648 C 185.827 116.127 155.143 177.953 121.355 232.429 C 87.566 286.905 50.826 338.742 48.737 340.509" id="path-1"/>
    <path style="stroke: rgb(0, 0, 0); fill: rgb(56, 134, 182); stroke-opacity: 0; stroke-width: 0px;" d="M 191.799 106.087 C 191.799 106.087 90.714 145.843 66.482 183.709 C 41.533 222.695 47.415 338.8 47.415 338.8" bx:d="M 191.799 106.087 R 66.482 183.709 R 47.415 338.8 1@c2fa0128"/>
  </g>
</svg>